<svg width="23" height="23" viewBox="0 0 23 23" fill="none" xmlns="http://www.w3.org/2000/svg">
<path d="M1.62158 0.243164C1.19234 0.243164 0.778996 0.410092 0.476937 0.712152C0.166928 1.01421 0 1.42756 0 1.84885V20.9263C0 21.1409 0.0397447 21.3476 0.119234 21.5463C0.198724 21.7451 0.317958 21.9199 0.468988 22.071C0.620017 22.222 0.794894 22.3412 0.993618 22.4207C1.19234 22.5002 1.39901 22.5399 1.61364 22.5399C2.04288 22.5399 2.45622 22.373 2.75828 22.071C3.06034 21.7689 3.23522 21.3635 3.23522 20.9343V1.84885C3.23522 1.41961 3.06829 1.01421 2.75828 0.712152C2.45622 0.410092 2.04288 0.243164 1.61364 0.243164L1.62158 0.243164Z" fill="currentColor"/>
<path d="M11.3503 3.8916C11.1357 3.8916 10.9291 3.93135 10.7303 4.01084C10.5316 4.09032 10.3567 4.20956 10.2057 4.36059C10.0547 4.51162 9.93543 4.6865 9.85594 4.88522C9.77645 5.08394 9.72876 5.29062 9.72876 5.49729V17.1266C9.72876 17.5558 9.89569 17.9612 10.2057 18.2633C10.5078 18.5653 10.9211 18.7323 11.3503 18.7323C11.7796 18.7323 12.1929 18.5653 12.495 18.2633C12.7971 17.9612 12.9719 17.5558 12.9719 17.1266V5.49729C12.9719 5.06805 12.805 4.66265 12.495 4.36059C12.1929 4.05853 11.7796 3.8916 11.3503 3.8916Z" fill="currentColor"/>
<path d="M6.4867 10.4575C6.05745 10.4575 5.64411 10.6244 5.34205 10.9265C5.03999 11.2286 4.86511 11.634 4.86511 12.0632V18.6926C4.86511 19.1219 5.03204 19.5273 5.34205 19.8293C5.64411 20.1314 6.05745 20.2983 6.4867 20.2983C6.91594 20.2983 7.32928 20.1314 7.63134 19.8293C7.9334 19.5273 8.10828 19.1219 8.10828 18.6926V12.0632C8.10828 11.634 7.94135 11.2286 7.63134 10.9265C7.32928 10.6244 6.91594 10.4575 6.4867 10.4575Z" fill="currentColor"/>
<path d="M21.0806 0.243164C20.8659 0.243164 20.6593 0.282909 20.4606 0.362398C20.2618 0.441888 20.087 0.561122 19.9359 0.712152C19.7849 0.863182 19.6657 1.03806 19.5862 1.23678C19.5067 1.43551 19.459 1.64218 19.459 1.84885V20.9263C19.459 21.3556 19.6259 21.761 19.9359 22.063C20.238 22.3651 20.6513 22.532 21.0806 22.532C21.5098 22.532 21.9232 22.3651 22.2252 22.063C22.5273 21.761 22.7022 21.3556 22.7022 20.9263V1.84885C22.7022 1.41961 22.5352 1.01421 22.2252 0.712152C21.9232 0.410092 21.5098 0.243164 21.0806 0.243164Z" fill="currentColor"/>
<path d="M16.2155 10.4575C15.7862 10.4575 15.3729 10.6244 15.0708 10.9265C14.7687 11.2286 14.5939 11.634 14.5939 12.0632V18.6926C14.5939 19.1219 14.7608 19.5273 15.0708 19.8293C15.3729 20.1314 15.7862 20.2983 16.2155 20.2983C16.6447 20.2983 17.058 20.1314 17.3601 19.8293C17.6622 19.5273 17.837 19.1219 17.837 18.6926V12.0632C17.837 11.634 17.6701 11.2286 17.3601 10.9265C17.058 10.6244 16.6447 10.4575 16.2155 10.4575Z" fill="currentColor"/>
</svg>
